<mxfile host="Electron" modified="2024-05-08T13:57:20.245Z" agent="Mozilla/5.0 (Windows NT 10.0; Win64; x64) AppleWebKit/537.36 (KHTML, like Gecko) draw.io/24.2.5 Chrome/120.0.6099.109 Electron/28.1.0 Safari/537.36" etag="ua5uP8nmNnP7hE0aul3e" version="24.2.5" type="device">
  <diagram name="Page-1" id="H9_ym3L1fPul_pZStPwW">
    <mxGraphModel dx="1232" dy="1205" grid="1" gridSize="10" guides="1" tooltips="1" connect="1" arrows="1" fold="1" page="1" pageScale="1" pageWidth="850" pageHeight="1100" math="0" shadow="0">
      <root>
        <mxCell id="0" />
        <mxCell id="1" parent="0" />
        <mxCell id="4Lp0WvHbp_2dP8VPNg9O-3" value="Compiled" style="edgeStyle=orthogonalEdgeStyle;rounded=0;orthogonalLoop=1;jettySize=auto;html=1;" edge="1" parent="1" source="4Lp0WvHbp_2dP8VPNg9O-1" target="4Lp0WvHbp_2dP8VPNg9O-2">
          <mxGeometry relative="1" as="geometry" />
        </mxCell>
        <mxCell id="4Lp0WvHbp_2dP8VPNg9O-1" value="Java Code" style="rounded=0;whiteSpace=wrap;html=1;" vertex="1" parent="1">
          <mxGeometry x="370" y="160" width="120" height="60" as="geometry" />
        </mxCell>
        <mxCell id="4Lp0WvHbp_2dP8VPNg9O-10" style="edgeStyle=orthogonalEdgeStyle;rounded=0;orthogonalLoop=1;jettySize=auto;html=1;entryX=0.5;entryY=0;entryDx=0;entryDy=0;" edge="1" parent="1" source="4Lp0WvHbp_2dP8VPNg9O-2" target="4Lp0WvHbp_2dP8VPNg9O-5">
          <mxGeometry relative="1" as="geometry" />
        </mxCell>
        <mxCell id="4Lp0WvHbp_2dP8VPNg9O-2" value="Bytecode" style="rounded=0;whiteSpace=wrap;html=1;" vertex="1" parent="1">
          <mxGeometry x="370" y="290" width="120" height="60" as="geometry" />
        </mxCell>
        <mxCell id="4Lp0WvHbp_2dP8VPNg9O-11" value="&amp;nbsp;Bytecode&amp;nbsp;" style="edgeStyle=orthogonalEdgeStyle;rounded=0;orthogonalLoop=1;jettySize=auto;html=1;" edge="1" parent="1" source="4Lp0WvHbp_2dP8VPNg9O-5" target="4Lp0WvHbp_2dP8VPNg9O-6">
          <mxGeometry relative="1" as="geometry" />
        </mxCell>
        <mxCell id="4Lp0WvHbp_2dP8VPNg9O-12" style="edgeStyle=orthogonalEdgeStyle;rounded=0;orthogonalLoop=1;jettySize=auto;html=1;" edge="1" parent="1" source="4Lp0WvHbp_2dP8VPNg9O-5" target="4Lp0WvHbp_2dP8VPNg9O-7">
          <mxGeometry relative="1" as="geometry">
            <Array as="points">
              <mxPoint x="335" y="490" />
            </Array>
          </mxGeometry>
        </mxCell>
        <mxCell id="4Lp0WvHbp_2dP8VPNg9O-17" value="&amp;nbsp;Bytecode&amp;nbsp;" style="edgeLabel;html=1;align=center;verticalAlign=middle;resizable=0;points=[];" vertex="1" connectable="0" parent="4Lp0WvHbp_2dP8VPNg9O-12">
          <mxGeometry x="0.4667" y="2" relative="1" as="geometry">
            <mxPoint as="offset" />
          </mxGeometry>
        </mxCell>
        <mxCell id="4Lp0WvHbp_2dP8VPNg9O-13" style="edgeStyle=orthogonalEdgeStyle;rounded=0;orthogonalLoop=1;jettySize=auto;html=1;" edge="1" parent="1" source="4Lp0WvHbp_2dP8VPNg9O-5" target="4Lp0WvHbp_2dP8VPNg9O-9">
          <mxGeometry relative="1" as="geometry" />
        </mxCell>
        <mxCell id="4Lp0WvHbp_2dP8VPNg9O-15" value="&amp;nbsp;Bytecode&amp;nbsp;" style="edgeLabel;html=1;align=center;verticalAlign=middle;resizable=0;points=[];" vertex="1" connectable="0" parent="4Lp0WvHbp_2dP8VPNg9O-13">
          <mxGeometry x="-0.1493" relative="1" as="geometry">
            <mxPoint x="19" as="offset" />
          </mxGeometry>
        </mxCell>
        <mxCell id="4Lp0WvHbp_2dP8VPNg9O-14" style="edgeStyle=orthogonalEdgeStyle;rounded=0;orthogonalLoop=1;jettySize=auto;html=1;" edge="1" parent="1" source="4Lp0WvHbp_2dP8VPNg9O-5" target="4Lp0WvHbp_2dP8VPNg9O-8">
          <mxGeometry relative="1" as="geometry">
            <Array as="points">
              <mxPoint x="525" y="490" />
            </Array>
          </mxGeometry>
        </mxCell>
        <mxCell id="4Lp0WvHbp_2dP8VPNg9O-16" value="&amp;nbsp;Bytecode&amp;nbsp;" style="edgeLabel;html=1;align=center;verticalAlign=middle;resizable=0;points=[];" vertex="1" connectable="0" parent="4Lp0WvHbp_2dP8VPNg9O-14">
          <mxGeometry x="0.4545" y="-2" relative="1" as="geometry">
            <mxPoint as="offset" />
          </mxGeometry>
        </mxCell>
        <mxCell id="4Lp0WvHbp_2dP8VPNg9O-5" value="Run" style="rhombus;whiteSpace=wrap;html=1;" vertex="1" parent="1">
          <mxGeometry x="390" y="420" width="80" height="80" as="geometry" />
        </mxCell>
        <mxCell id="4Lp0WvHbp_2dP8VPNg9O-25" style="edgeStyle=orthogonalEdgeStyle;rounded=0;orthogonalLoop=1;jettySize=auto;html=1;entryX=0.5;entryY=0;entryDx=0;entryDy=0;" edge="1" parent="1" source="4Lp0WvHbp_2dP8VPNg9O-6" target="4Lp0WvHbp_2dP8VPNg9O-18">
          <mxGeometry relative="1" as="geometry" />
        </mxCell>
        <mxCell id="4Lp0WvHbp_2dP8VPNg9O-6" value="Windows JVM" style="rounded=0;whiteSpace=wrap;html=1;" vertex="1" parent="1">
          <mxGeometry x="60" y="570" width="150" height="60" as="geometry" />
        </mxCell>
        <mxCell id="4Lp0WvHbp_2dP8VPNg9O-24" style="edgeStyle=orthogonalEdgeStyle;rounded=0;orthogonalLoop=1;jettySize=auto;html=1;entryX=0.5;entryY=0;entryDx=0;entryDy=0;" edge="1" parent="1" source="4Lp0WvHbp_2dP8VPNg9O-7" target="4Lp0WvHbp_2dP8VPNg9O-19">
          <mxGeometry relative="1" as="geometry" />
        </mxCell>
        <mxCell id="4Lp0WvHbp_2dP8VPNg9O-7" value="Unix JVM" style="rounded=0;whiteSpace=wrap;html=1;" vertex="1" parent="1">
          <mxGeometry x="260" y="570" width="150" height="60" as="geometry" />
        </mxCell>
        <mxCell id="4Lp0WvHbp_2dP8VPNg9O-23" style="edgeStyle=orthogonalEdgeStyle;rounded=0;orthogonalLoop=1;jettySize=auto;html=1;entryX=0.5;entryY=0;entryDx=0;entryDy=0;" edge="1" parent="1" source="4Lp0WvHbp_2dP8VPNg9O-8" target="4Lp0WvHbp_2dP8VPNg9O-20">
          <mxGeometry relative="1" as="geometry" />
        </mxCell>
        <mxCell id="4Lp0WvHbp_2dP8VPNg9O-8" value="Linux JVM" style="rounded=0;whiteSpace=wrap;html=1;" vertex="1" parent="1">
          <mxGeometry x="450" y="570" width="150" height="60" as="geometry" />
        </mxCell>
        <mxCell id="4Lp0WvHbp_2dP8VPNg9O-22" style="edgeStyle=orthogonalEdgeStyle;rounded=0;orthogonalLoop=1;jettySize=auto;html=1;entryX=0.5;entryY=0;entryDx=0;entryDy=0;" edge="1" parent="1" source="4Lp0WvHbp_2dP8VPNg9O-9" target="4Lp0WvHbp_2dP8VPNg9O-21">
          <mxGeometry relative="1" as="geometry" />
        </mxCell>
        <mxCell id="4Lp0WvHbp_2dP8VPNg9O-9" value="Any other plataform JVM" style="rounded=0;whiteSpace=wrap;html=1;" vertex="1" parent="1">
          <mxGeometry x="640" y="570" width="150" height="60" as="geometry" />
        </mxCell>
        <mxCell id="4Lp0WvHbp_2dP8VPNg9O-18" value="Windows Instructions" style="rounded=0;whiteSpace=wrap;html=1;" vertex="1" parent="1">
          <mxGeometry x="60" y="680" width="150" height="60" as="geometry" />
        </mxCell>
        <mxCell id="4Lp0WvHbp_2dP8VPNg9O-19" value="Unix Instructions" style="rounded=0;whiteSpace=wrap;html=1;" vertex="1" parent="1">
          <mxGeometry x="260" y="680" width="150" height="60" as="geometry" />
        </mxCell>
        <mxCell id="4Lp0WvHbp_2dP8VPNg9O-20" value="Linux Instructions" style="rounded=0;whiteSpace=wrap;html=1;" vertex="1" parent="1">
          <mxGeometry x="450" y="680" width="150" height="60" as="geometry" />
        </mxCell>
        <mxCell id="4Lp0WvHbp_2dP8VPNg9O-21" value="Any other plataform intructions" style="rounded=0;whiteSpace=wrap;html=1;" vertex="1" parent="1">
          <mxGeometry x="640" y="680" width="150" height="60" as="geometry" />
        </mxCell>
      </root>
    </mxGraphModel>
  </diagram>
</mxfile>
